<?xml version="1.0" standalone="no"?>
<!DOCTYPE svg PUBLIC "-//W3C//DTD SVG 20010904//EN"
 "http://www.w3.org/TR/2001/REC-SVG-20010904/DTD/svg10.dtd">
<svg version="1.0" xmlns="http://www.w3.org/2000/svg"
 width="700.000000pt" height="700.000000pt" viewBox="0 0 700.000000 700.000000"
 preserveAspectRatio="xMidYMid meet">
<metadata>
Created by potrace 1.11, written by Peter Selinger 2001-2013
</metadata>
<g transform="translate(0.000000,700.000000) scale(0.100000,-0.100000)"
fill="#000000" stroke="none">
<path d="M3360 5991 c-30 -10 -66 -23 -80 -31 -24 -12 -139 -97 -150 -110 -3
-3 -72 -62 -155 -130 -82 -69 -159 -132 -170 -142 -11 -9 -108 -89 -215 -179
-107 -89 -215 -179 -240 -199 -25 -21 -90 -76 -145 -121 -55 -46 -109 -91
-120 -101 -11 -9 -54 -44 -95 -78 -41 -34 -86 -72 -100 -83 -14 -12 -104 -87
-200 -167 -96 -80 -186 -155 -200 -167 -35 -30 -228 -191 -281 -235 -24 -20
-87 -71 -139 -114 -52 -44 -100 -83 -106 -89 -6 -5 -30 -26 -55 -47 -538 -444
-559 -464 -559 -527 0 -33 81 -152 150 -221 3 -3 27 -32 54 -65 68 -82 81 -94
122 -111 72 -30 57 -41 924 686 25 21 117 97 205 170 88 73 183 152 210 175
28 24 124 105 215 180 91 76 176 147 190 159 14 11 50 41 80 66 58 48 82 67
116 97 12 10 43 36 70 58 27 22 76 63 109 90 33 28 184 154 335 280 151 126
277 232 280 235 3 3 24 21 48 39 38 30 45 32 60 19 9 -8 152 -127 317 -264
165 -137 309 -257 320 -266 33 -28 237 -198 285 -238 37 -31 215 -179 700
-582 14 -12 41 -35 60 -52 20 -17 57 -49 84 -71 27 -22 135 -112 241 -200 105
-88 211 -176 236 -197 51 -42 189 -157 369 -307 113 -95 166 -108 232 -57 25
20 236 269 264 311 19 30 25 76 13 112 -9 28 -50 69 -144 146 -39 32 -651 540
-697 579 l-48 40 0 810 c0 885 2 858 -57 889 -37 20 -848 21 -885 1 -22 -12
-55 -55 -57 -74 -1 -5 -1 -184 -1 -398 0 -330 -2 -390 -14 -383 -7 4 -35 27
-62 49 -27 23 -152 128 -279 234 -126 106 -241 202 -255 213 -256 219 -398
328 -458 353 -87 35 -236 43 -322 15z"/>
<path d="M3443 4953 c-116 -95 -278 -228 -283 -233 -4 -5 -173 -143 -244 -200
-10 -8 -23 -20 -30 -25 -6 -6 -63 -53 -126 -105 -63 -51 -117 -96 -120 -100
-3 -3 -25 -21 -50 -40 -25 -19 -56 -45 -70 -57 -31 -26 -211 -175 -270 -223
-24 -19 -84 -69 -134 -111 -50 -41 -199 -164 -331 -273 -132 -109 -249 -205
-260 -214 -11 -10 -77 -64 -148 -122 l-127 -104 2 -981 3 -980 23 -43 c32 -62
90 -114 144 -130 13 -4 373 -8 801 -9 l777 -3 0 750 0 750 500 0 500 0 0 -750
0 -750 783 2 c724 3 785 4 817 21 52 26 96 68 122 118 l23 44 3 981 2 981 -37
29 c-21 16 -49 38 -63 50 -28 24 -45 39 -420 347 -146 120 -274 226 -285 235
-11 9 -45 37 -75 62 -30 25 -66 55 -80 66 -14 12 -95 79 -180 149 -85 69 -166
136 -180 148 -14 13 -50 42 -80 67 -30 25 -57 47 -60 50 -3 3 -25 21 -50 40
-44 35 -82 65 -104 85 -6 6 -60 51 -121 101 -60 49 -201 165 -312 257 l-203
167 -57 -47z"/>
</g>
</svg>
